<mxfile host="app.diagrams.net" modified="2024-03-01T11:32:28.932Z" agent="Mozilla/5.0 (Windows NT 10.0; Win64; x64) AppleWebKit/537.36 (KHTML, like Gecko) Chrome/122.0.0.0 Safari/537.36 Edg/122.0.0.0" etag="rk9gVDkavJobPKXhmneT" version="24.0.0" type="google">
  <diagram name="Page-1" id="3NvwMDNa_lG1HpVza_an">
    <mxGraphModel grid="1" page="1" gridSize="10" guides="1" tooltips="1" connect="1" arrows="1" fold="1" pageScale="1" pageWidth="827" pageHeight="1169" math="0" shadow="0">
      <root>
        <mxCell id="0" />
        <mxCell id="1" parent="0" />
        <mxCell id="5aUr8NUEUVz0ltR_Y4tV-48" style="edgeStyle=orthogonalEdgeStyle;rounded=0;orthogonalLoop=1;jettySize=auto;html=1;endArrow=none;endFill=0;fontSize=16;" edge="1" parent="1" source="5aUr8NUEUVz0ltR_Y4tV-3" target="5aUr8NUEUVz0ltR_Y4tV-12">
          <mxGeometry relative="1" as="geometry" />
        </mxCell>
        <mxCell id="5aUr8NUEUVz0ltR_Y4tV-4" value="" style="shape=image;html=1;verticalAlign=top;verticalLabelPosition=bottom;labelBackgroundColor=#ffffff;imageAspect=0;aspect=fixed;image=https://cdn2.iconfinder.com/data/icons/whcompare-isometric-web-hosting-servers/50/firewall-128.png;fontSize=16;" vertex="1" parent="1">
          <mxGeometry x="240" y="205" width="88" height="88" as="geometry" />
        </mxCell>
        <mxCell id="5aUr8NUEUVz0ltR_Y4tV-3" value="" style="image;html=1;image=img/lib/clip_art/networking/Router_Icon_128x128.png;fontSize=16;" vertex="1" parent="1">
          <mxGeometry x="210" y="246" width="80" height="80" as="geometry" />
        </mxCell>
        <mxCell id="5aUr8NUEUVz0ltR_Y4tV-38" style="edgeStyle=orthogonalEdgeStyle;rounded=0;orthogonalLoop=1;jettySize=auto;html=1;strokeColor=default;endArrow=none;endFill=0;fontSize=16;" edge="1" parent="1" source="5aUr8NUEUVz0ltR_Y4tV-5" target="5aUr8NUEUVz0ltR_Y4tV-4">
          <mxGeometry relative="1" as="geometry" />
        </mxCell>
        <mxCell id="5aUr8NUEUVz0ltR_Y4tV-39" style="edgeStyle=orthogonalEdgeStyle;rounded=0;orthogonalLoop=1;jettySize=auto;html=1;strokeColor=default;endArrow=none;endFill=0;fontSize=16;" edge="1" parent="1" source="5aUr8NUEUVz0ltR_Y4tV-5" target="5aUr8NUEUVz0ltR_Y4tV-9">
          <mxGeometry relative="1" as="geometry" />
        </mxCell>
        <mxCell id="5aUr8NUEUVz0ltR_Y4tV-40" style="edgeStyle=orthogonalEdgeStyle;rounded=0;orthogonalLoop=1;jettySize=auto;html=1;strokeColor=default;endArrow=none;endFill=0;fontSize=16;" edge="1" parent="1" source="5aUr8NUEUVz0ltR_Y4tV-5" target="5aUr8NUEUVz0ltR_Y4tV-7">
          <mxGeometry relative="1" as="geometry" />
        </mxCell>
        <mxCell id="5aUr8NUEUVz0ltR_Y4tV-5" value="" style="image;aspect=fixed;perimeter=ellipsePerimeter;html=1;align=center;shadow=0;dashed=0;spacingTop=3;image=img/lib/active_directory/internet_cloud.svg;fontSize=16;" vertex="1" parent="1">
          <mxGeometry x="380" y="210" width="124.61" height="78.5" as="geometry" />
        </mxCell>
        <mxCell id="5aUr8NUEUVz0ltR_Y4tV-7" value="" style="shape=image;html=1;verticalAlign=top;verticalLabelPosition=bottom;labelBackgroundColor=#ffffff;imageAspect=0;aspect=fixed;image=https://cdn2.iconfinder.com/data/icons/whcompare-isometric-web-hosting-servers/50/firewall-128.png;fontSize=16;" vertex="1" parent="1">
          <mxGeometry x="398.6" y="340" width="88" height="88" as="geometry" />
        </mxCell>
        <mxCell id="5aUr8NUEUVz0ltR_Y4tV-6" value="" style="image;aspect=fixed;perimeter=ellipsePerimeter;html=1;align=center;shadow=0;dashed=0;spacingTop=3;image=img/lib/active_directory/generic_server.svg;fontSize=16;" vertex="1" parent="1">
          <mxGeometry x="398.6" y="390" width="44.8" height="80" as="geometry" />
        </mxCell>
        <mxCell id="5aUr8NUEUVz0ltR_Y4tV-10" value="" style="shape=image;html=1;verticalAlign=top;verticalLabelPosition=bottom;labelBackgroundColor=#ffffff;imageAspect=0;aspect=fixed;image=https://cdn2.iconfinder.com/data/icons/whcompare-isometric-web-hosting-servers/50/firewall-128.png;fontSize=16;" vertex="1" parent="1">
          <mxGeometry x="527.26" y="162.25" width="88" height="88" as="geometry" />
        </mxCell>
        <mxCell id="5aUr8NUEUVz0ltR_Y4tV-41" style="edgeStyle=orthogonalEdgeStyle;rounded=0;orthogonalLoop=1;jettySize=auto;html=1;endArrow=none;endFill=0;fontSize=16;" edge="1" parent="1" source="5aUr8NUEUVz0ltR_Y4tV-9" target="5aUr8NUEUVz0ltR_Y4tV-13">
          <mxGeometry relative="1" as="geometry" />
        </mxCell>
        <mxCell id="5aUr8NUEUVz0ltR_Y4tV-9" value="" style="image;html=1;image=img/lib/clip_art/networking/Router_Icon_128x128.png;fontSize=16;" vertex="1" parent="1">
          <mxGeometry x="562.4" y="209.25" width="80" height="80" as="geometry" />
        </mxCell>
        <mxCell id="5aUr8NUEUVz0ltR_Y4tV-57" style="edgeStyle=orthogonalEdgeStyle;rounded=0;orthogonalLoop=1;jettySize=auto;html=1;endArrow=none;endFill=0;fontSize=16;" edge="1" parent="1" source="5aUr8NUEUVz0ltR_Y4tV-12" target="5aUr8NUEUVz0ltR_Y4tV-15">
          <mxGeometry relative="1" as="geometry" />
        </mxCell>
        <mxCell id="5aUr8NUEUVz0ltR_Y4tV-59" style="edgeStyle=orthogonalEdgeStyle;rounded=0;orthogonalLoop=1;jettySize=auto;html=1;endArrow=none;endFill=0;fontSize=16;" edge="1" parent="1" source="5aUr8NUEUVz0ltR_Y4tV-12" target="5aUr8NUEUVz0ltR_Y4tV-14">
          <mxGeometry relative="1" as="geometry" />
        </mxCell>
        <mxCell id="5aUr8NUEUVz0ltR_Y4tV-12" value="" style="image;html=1;image=img/lib/clip_art/networking/Switch_128x128.png;fontSize=16;" vertex="1" parent="1">
          <mxGeometry x="41" y="246" width="80" height="80" as="geometry" />
        </mxCell>
        <mxCell id="5aUr8NUEUVz0ltR_Y4tV-44" style="edgeStyle=orthogonalEdgeStyle;rounded=0;orthogonalLoop=1;jettySize=auto;html=1;endArrow=none;endFill=0;fontSize=16;" edge="1" parent="1" source="5aUr8NUEUVz0ltR_Y4tV-13" target="5aUr8NUEUVz0ltR_Y4tV-31">
          <mxGeometry relative="1" as="geometry" />
        </mxCell>
        <mxCell id="5aUr8NUEUVz0ltR_Y4tV-13" value="" style="image;aspect=fixed;perimeter=ellipsePerimeter;html=1;align=center;shadow=0;dashed=0;spacingTop=3;image=img/lib/active_directory/generic_server.svg;fontSize=16;" vertex="1" parent="1">
          <mxGeometry x="580" y="350" width="44.8" height="80" as="geometry" />
        </mxCell>
        <mxCell id="5aUr8NUEUVz0ltR_Y4tV-60" style="edgeStyle=orthogonalEdgeStyle;rounded=0;orthogonalLoop=1;jettySize=auto;html=1;endArrow=none;endFill=0;fontSize=16;" edge="1" parent="1" source="5aUr8NUEUVz0ltR_Y4tV-14" target="5aUr8NUEUVz0ltR_Y4tV-16">
          <mxGeometry relative="1" as="geometry" />
        </mxCell>
        <mxCell id="5aUr8NUEUVz0ltR_Y4tV-14" value="" style="image;aspect=fixed;perimeter=ellipsePerimeter;html=1;align=center;shadow=0;dashed=0;spacingTop=3;image=img/lib/active_directory/generic_server.svg;fontSize=16;" vertex="1" parent="1">
          <mxGeometry x="58.60000000000002" y="389" width="44.8" height="80" as="geometry" />
        </mxCell>
        <mxCell id="5aUr8NUEUVz0ltR_Y4tV-15" value="" style="fontColor=#0066CC;verticalAlign=top;verticalLabelPosition=bottom;labelPosition=center;align=center;html=1;outlineConnect=0;fillColor=#CCCCCC;strokeColor=#6881B3;gradientColor=none;gradientDirection=north;strokeWidth=2;shape=mxgraph.networks.storage;fontSize=16;" vertex="1" parent="1">
          <mxGeometry x="51" y="119" width="60" height="68" as="geometry" />
        </mxCell>
        <mxCell id="5aUr8NUEUVz0ltR_Y4tV-16" value="" style="shape=image;html=1;verticalAlign=top;verticalLabelPosition=bottom;labelBackgroundColor=#ffffff;imageAspect=0;aspect=fixed;image=https://cdn3.iconfinder.com/data/icons/flatforlinux/128/7-Image%20capture.png;fontSize=16;" vertex="1" parent="1">
          <mxGeometry x="-79" y="395.25" width="67.5" height="67.5" as="geometry" />
        </mxCell>
        <mxCell id="5aUr8NUEUVz0ltR_Y4tV-51" style="edgeStyle=orthogonalEdgeStyle;rounded=0;orthogonalLoop=1;jettySize=auto;html=1;endArrow=none;endFill=0;fontSize=16;" edge="1" parent="1" source="5aUr8NUEUVz0ltR_Y4tV-17" target="5aUr8NUEUVz0ltR_Y4tV-30">
          <mxGeometry relative="1" as="geometry" />
        </mxCell>
        <mxCell id="5aUr8NUEUVz0ltR_Y4tV-52" style="edgeStyle=orthogonalEdgeStyle;rounded=0;orthogonalLoop=1;jettySize=auto;html=1;endArrow=none;endFill=0;fontSize=16;" edge="1" parent="1" source="5aUr8NUEUVz0ltR_Y4tV-17" target="5aUr8NUEUVz0ltR_Y4tV-29">
          <mxGeometry relative="1" as="geometry" />
        </mxCell>
        <mxCell id="5aUr8NUEUVz0ltR_Y4tV-53" style="edgeStyle=orthogonalEdgeStyle;rounded=0;orthogonalLoop=1;jettySize=auto;html=1;endArrow=none;endFill=0;fontSize=16;" edge="1" parent="1" source="5aUr8NUEUVz0ltR_Y4tV-17" target="5aUr8NUEUVz0ltR_Y4tV-28">
          <mxGeometry relative="1" as="geometry" />
        </mxCell>
        <mxCell id="5aUr8NUEUVz0ltR_Y4tV-17" value="" style="points=[[0.03,0.36,0],[0.18,0,0],[0.5,0.34,0],[0.82,0,0],[0.97,0.36,0],[1,0.67,0],[0.975,0.975,0],[0.5,1,0],[0.025,0.975,0],[0,0.67,0]];verticalLabelPosition=bottom;sketch=0;html=1;verticalAlign=top;aspect=fixed;align=center;pointerEvents=1;shape=mxgraph.cisco19.wireless_access_point;fillColor=#005073;strokeColor=none;fontSize=16;" vertex="1" parent="1">
          <mxGeometry x="391" y="530" width="50" height="50" as="geometry" />
        </mxCell>
        <mxCell id="5aUr8NUEUVz0ltR_Y4tV-54" style="edgeStyle=orthogonalEdgeStyle;rounded=0;orthogonalLoop=1;jettySize=auto;html=1;endArrow=none;endFill=0;fontSize=16;" edge="1" parent="1" source="5aUr8NUEUVz0ltR_Y4tV-18" target="5aUr8NUEUVz0ltR_Y4tV-35">
          <mxGeometry relative="1" as="geometry" />
        </mxCell>
        <mxCell id="5aUr8NUEUVz0ltR_Y4tV-56" style="edgeStyle=orthogonalEdgeStyle;rounded=0;orthogonalLoop=1;jettySize=auto;html=1;endArrow=none;endFill=0;fontSize=16;" edge="1" parent="1" source="5aUr8NUEUVz0ltR_Y4tV-18" target="5aUr8NUEUVz0ltR_Y4tV-34">
          <mxGeometry relative="1" as="geometry" />
        </mxCell>
        <mxCell id="5aUr8NUEUVz0ltR_Y4tV-18" value="" style="points=[[0.03,0.36,0],[0.18,0,0],[0.5,0.34,0],[0.82,0,0],[0.97,0.36,0],[1,0.67,0],[0.975,0.975,0],[0.5,1,0],[0.025,0.975,0],[0,0.67,0]];verticalLabelPosition=bottom;sketch=0;html=1;verticalAlign=top;aspect=fixed;align=center;pointerEvents=1;shape=mxgraph.cisco19.wireless_access_point;fillColor=#005073;strokeColor=none;fontSize=16;" vertex="1" parent="1">
          <mxGeometry x="701.65" y="505" width="50" height="50" as="geometry" />
        </mxCell>
        <mxCell id="5aUr8NUEUVz0ltR_Y4tV-28" value="" style="image;points=[];aspect=fixed;html=1;align=center;shadow=0;dashed=0;image=img/lib/allied_telesis/computer_and_terminals/Smartphone.svg;fontSize=16;" vertex="1" parent="1">
          <mxGeometry x="470.89" y="630" width="26.22" height="57.2" as="geometry" />
        </mxCell>
        <mxCell id="5aUr8NUEUVz0ltR_Y4tV-29" value="" style="image;points=[];aspect=fixed;html=1;align=center;shadow=0;dashed=0;image=img/lib/allied_telesis/computer_and_terminals/Smartphone.svg;fontSize=16;" vertex="1" parent="1">
          <mxGeometry x="413.78" y="630" width="26.22" height="57.2" as="geometry" />
        </mxCell>
        <mxCell id="5aUr8NUEUVz0ltR_Y4tV-30" value="" style="image;points=[];aspect=fixed;html=1;align=center;shadow=0;dashed=0;image=img/lib/allied_telesis/computer_and_terminals/Smartphone.svg;fontSize=16;" vertex="1" parent="1">
          <mxGeometry x="350" y="630" width="26.22" height="57.2" as="geometry" />
        </mxCell>
        <mxCell id="5aUr8NUEUVz0ltR_Y4tV-45" style="edgeStyle=orthogonalEdgeStyle;rounded=0;orthogonalLoop=1;jettySize=auto;html=1;endArrow=none;endFill=0;fontSize=16;" edge="1" parent="1" source="5aUr8NUEUVz0ltR_Y4tV-31" target="5aUr8NUEUVz0ltR_Y4tV-32">
          <mxGeometry relative="1" as="geometry" />
        </mxCell>
        <mxCell id="5aUr8NUEUVz0ltR_Y4tV-46" style="edgeStyle=orthogonalEdgeStyle;rounded=0;orthogonalLoop=1;jettySize=auto;html=1;endArrow=none;endFill=0;fontSize=16;" edge="1" parent="1" source="5aUr8NUEUVz0ltR_Y4tV-31" target="5aUr8NUEUVz0ltR_Y4tV-37">
          <mxGeometry relative="1" as="geometry" />
        </mxCell>
        <mxCell id="5aUr8NUEUVz0ltR_Y4tV-47" style="edgeStyle=orthogonalEdgeStyle;rounded=0;orthogonalLoop=1;jettySize=auto;html=1;endArrow=none;endFill=0;fontSize=16;" edge="1" parent="1" source="5aUr8NUEUVz0ltR_Y4tV-31" target="5aUr8NUEUVz0ltR_Y4tV-18">
          <mxGeometry relative="1" as="geometry" />
        </mxCell>
        <mxCell id="5aUr8NUEUVz0ltR_Y4tV-31" value="" style="image;html=1;image=img/lib/clip_art/networking/Switch_128x128.png;fontSize=16;" vertex="1" parent="1">
          <mxGeometry x="687" y="350" width="80" height="80" as="geometry" />
        </mxCell>
        <mxCell id="5aUr8NUEUVz0ltR_Y4tV-32" value="" style="fontColor=#0066CC;verticalAlign=top;verticalLabelPosition=bottom;labelPosition=center;align=center;html=1;outlineConnect=0;fillColor=#CCCCCC;strokeColor=#6881B3;gradientColor=none;gradientDirection=north;strokeWidth=2;shape=mxgraph.networks.storage;fontSize=16;" vertex="1" parent="1">
          <mxGeometry x="697" y="197" width="60" height="68" as="geometry" />
        </mxCell>
        <mxCell id="5aUr8NUEUVz0ltR_Y4tV-34" value="" style="image;points=[];aspect=fixed;html=1;align=center;shadow=0;dashed=0;image=img/lib/allied_telesis/computer_and_terminals/Smartphone.svg;fontSize=16;" vertex="1" parent="1">
          <mxGeometry x="734.94" y="635" width="26.22" height="57.2" as="geometry" />
        </mxCell>
        <mxCell id="5aUr8NUEUVz0ltR_Y4tV-35" value="" style="image;points=[];aspect=fixed;html=1;align=center;shadow=0;dashed=0;image=img/lib/allied_telesis/computer_and_terminals/Smartphone.svg;fontSize=16;" vertex="1" parent="1">
          <mxGeometry x="688.05" y="635" width="26.22" height="57.2" as="geometry" />
        </mxCell>
        <mxCell id="5aUr8NUEUVz0ltR_Y4tV-37" value="" style="fontColor=#0066CC;verticalAlign=top;verticalLabelPosition=bottom;labelPosition=center;align=center;html=1;outlineConnect=0;fillColor=#CCCCCC;strokeColor=#6881B3;gradientColor=none;gradientDirection=north;strokeWidth=2;shape=mxgraph.networks.video_projector;fontSize=16;" vertex="1" parent="1">
          <mxGeometry x="810" y="372.5" width="100" height="35" as="geometry" />
        </mxCell>
        <mxCell id="5aUr8NUEUVz0ltR_Y4tV-50" style="edgeStyle=orthogonalEdgeStyle;rounded=0;orthogonalLoop=1;jettySize=auto;html=1;entryX=0.6;entryY=0.045;entryDx=0;entryDy=0;entryPerimeter=0;endArrow=none;endFill=0;fontSize=16;" edge="1" parent="1" source="5aUr8NUEUVz0ltR_Y4tV-6" target="5aUr8NUEUVz0ltR_Y4tV-17">
          <mxGeometry relative="1" as="geometry" />
        </mxCell>
        <mxCell id="5aUr8NUEUVz0ltR_Y4tV-61" value="router" style="text;html=1;align=center;verticalAlign=middle;resizable=0;points=[];autosize=1;strokeColor=none;fillColor=none;fontSize=16;" vertex="1" parent="1">
          <mxGeometry x="200" y="317.5" width="70" height="30" as="geometry" />
        </mxCell>
        <mxCell id="5aUr8NUEUVz0ltR_Y4tV-62" value="Switch" style="text;html=1;align=center;verticalAlign=middle;resizable=0;points=[];autosize=1;strokeColor=none;fillColor=none;fontSize=16;" vertex="1" parent="1">
          <mxGeometry x="-34" y="262.5" width="70" height="30" as="geometry" />
        </mxCell>
        <mxCell id="5aUr8NUEUVz0ltR_Y4tV-63" value="Switch" style="text;html=1;align=center;verticalAlign=middle;resizable=0;points=[];autosize=1;strokeColor=none;fillColor=none;fontSize=16;" vertex="1" parent="1">
          <mxGeometry x="648.22" y="336.25" width="70" height="30" as="geometry" />
        </mxCell>
        <mxCell id="5aUr8NUEUVz0ltR_Y4tV-64" value="Edge Server(remote site)" style="text;html=1;align=center;verticalAlign=middle;resizable=0;points=[];autosize=1;strokeColor=none;fillColor=none;fontSize=16;" vertex="1" parent="1">
          <mxGeometry x="490" y="428" width="200" height="30" as="geometry" />
        </mxCell>
        <mxCell id="5aUr8NUEUVz0ltR_Y4tV-65" value="Edge Server(remote site)" style="text;html=1;align=center;verticalAlign=middle;resizable=0;points=[];autosize=1;strokeColor=none;fillColor=none;fontSize=16;" vertex="1" parent="1">
          <mxGeometry x="342.6" y="470" width="200" height="30" as="geometry" />
        </mxCell>
        <mxCell id="5aUr8NUEUVz0ltR_Y4tV-67" value="Wireless access point" style="text;html=1;align=center;verticalAlign=middle;resizable=0;points=[];autosize=1;strokeColor=none;fillColor=none;fontSize=16;" vertex="1" parent="1">
          <mxGeometry x="632.8" y="555" width="180" height="30" as="geometry" />
        </mxCell>
        <mxCell id="5aUr8NUEUVz0ltR_Y4tV-68" value="3G/ Data network" style="text;html=1;align=center;verticalAlign=middle;resizable=0;points=[];autosize=1;strokeColor=none;fillColor=none;fontSize=16;" vertex="1" parent="1">
          <mxGeometry x="245" y="570" width="150" height="30" as="geometry" />
        </mxCell>
        <mxCell id="5aUr8NUEUVz0ltR_Y4tV-69" value="original server" style="text;html=1;align=center;verticalAlign=middle;resizable=0;points=[];autosize=1;strokeColor=none;fillColor=none;fontSize=16;" vertex="1" parent="1">
          <mxGeometry x="11" y="462.75" width="120" height="30" as="geometry" />
        </mxCell>
        <mxCell id="5aUr8NUEUVz0ltR_Y4tV-70" value="capture device" style="text;html=1;align=center;verticalAlign=middle;resizable=0;points=[];autosize=1;strokeColor=none;fillColor=none;fontSize=16;" vertex="1" parent="1">
          <mxGeometry x="-110.25" y="469" width="130" height="30" as="geometry" />
        </mxCell>
        <mxCell id="5aUr8NUEUVz0ltR_Y4tV-71" value="SAN" style="text;html=1;align=center;verticalAlign=middle;resizable=0;points=[];autosize=1;strokeColor=none;fillColor=none;fontSize=16;" vertex="1" parent="1">
          <mxGeometry x="111" y="139" width="60" height="30" as="geometry" />
        </mxCell>
        <mxCell id="5aUr8NUEUVz0ltR_Y4tV-72" value="SAN" style="text;html=1;align=center;verticalAlign=middle;resizable=0;points=[];autosize=1;strokeColor=none;fillColor=none;fontSize=16;" vertex="1" parent="1">
          <mxGeometry x="780" y="206" width="60" height="30" as="geometry" />
        </mxCell>
        <mxCell id="5aUr8NUEUVz0ltR_Y4tV-73" value="Lecture device" style="text;html=1;align=center;verticalAlign=middle;resizable=0;points=[];autosize=1;strokeColor=none;fillColor=none;fontSize=16;" vertex="1" parent="1">
          <mxGeometry x="785" y="433.75" width="130" height="30" as="geometry" />
        </mxCell>
        <mxCell id="5aUr8NUEUVz0ltR_Y4tV-74" value="router" style="text;html=1;align=center;verticalAlign=middle;resizable=0;points=[];autosize=1;strokeColor=none;fillColor=none;fontSize=16;" vertex="1" parent="1">
          <mxGeometry x="620" y="267" width="70" height="30" as="geometry" />
        </mxCell>
      </root>
    </mxGraphModel>
  </diagram>
</mxfile>
